<?xml version="1.0" encoding="utf-8"?><svg viewBox="0 0 176 120" xmlns="http://www.w3.org/2000/svg" xmlns:xlink="http://www.w3.org/1999/xlink"><style>:root>svg{display:none}:root>svg:target{display:block}</style><svg fill="none" viewBox="0 0 39 30" id="down-arrows" xmlns="http://www.w3.org/2000/svg"><path d="m.5 1 19 19 19-19" stroke="#fff"/><path d="m.5 10 19 19 19-19" stroke="#fff"/></svg><svg viewBox="0 0 41 40" id="facebook" xmlns="http://www.w3.org/2000/svg"><path d="M22.333 16.667h5v5h-5v11.666h-5V21.667h-5v-5h5v-2.092c0-1.982.623-4.485 1.863-5.853 1.24-1.372 2.789-2.055 4.644-2.055h3.493v5h-3.5c-.83 0-1.5.67-1.5 1.498v3.502Z" opacity=".7"/></svg><svg viewBox="0 0 40 40" id="instagram" xmlns="http://www.w3.org/2000/svg"><g opacity=".7"><path d="M33.91 15.264a10.12 10.12 0 0 0-.652-3.44 7.155 7.155 0 0 0-4.094-4.087 10.287 10.287 0 0 0-3.399-.652C24.27 7.02 23.795 7 19.998 7c-3.797 0-4.283 0-5.768.085-1.161.024-2.31.245-3.398.652a7.165 7.165 0 0 0-4.093 4.088 10.158 10.158 0 0 0-.652 3.391C6.02 16.711 6 17.185 6 20.976c0 3.79 0 4.274.087 5.758.023 1.161.243 2.307.652 3.395a7.156 7.156 0 0 0 4.095 4.086c1.085.424 2.233.66 3.398.698C15.729 34.98 16.203 35 20 35c3.797 0 4.284 0 5.768-.087a10.264 10.264 0 0 0 3.4-.65 7.177 7.177 0 0 0 4.093-4.087c.41-1.087.629-2.233.652-3.395.067-1.494.087-1.967.087-5.76-.003-3.79-.003-4.271-.09-5.757Zm-13.92 12.88c-3.972 0-7.189-3.212-7.189-7.177 0-3.964 3.217-7.176 7.188-7.176 1.906 0 3.735.756 5.083 2.102a7.17 7.17 0 0 1 0 10.149 7.194 7.194 0 0 1-5.083 2.102Zm7.473-12.945a1.673 1.673 0 1 1 .64-3.219 1.675 1.675 0 0 1 1.035 1.546c0 .925-.75 1.673-1.675 1.673Z"/><path d="M19.99 25.97a5.005 5.005 0 1 0 0-10.01 5.005 5.005 0 0 0 0 10.01Z"/></g></svg><svg viewBox="0 0 40 40" id="linkedin" xmlns="http://www.w3.org/2000/svg"><g opacity=".7"><path d="M9 13c1.657 0 3-1.567 3-3.5S10.657 6 9 6 6 7.567 6 9.5 7.343 13 9 13ZM15.605 15.458v18.54h5.894V24.83c0-2.42.466-4.762 3.537-4.762 3.03 0 3.067 2.766 3.067 4.915V34H34V23.833C34 18.838 32.9 15 26.922 15c-2.87 0-4.793 1.538-5.58 2.994h-.08v-2.536h-5.657Zm-9.605 0h5.903v18.54H6v-18.54Z"/></g></svg><svg viewBox="0 0 176 32" id="logo" xmlns="http://www.w3.org/2000/svg"><path d="M81.272 15.003v16.574h4.72v-15.44a2.361 2.361 0 0 1 2.36-2.36h4.878v-4.66h-6.069a5.885 5.885 0 0 0-5.889 5.886ZM20.145 8.627c-5.4 0-9.572 3.94-9.572 8.857v7.231c-.018.378-.19.758-.399 1.093a2.813 2.813 0 0 1-2.445 1.364h-.046a2.804 2.804 0 0 1-2.435-1.413l-.092-.162a2.295 2.295 0 0 1-.307-1.146v-.754h.004V9.124H.003V21.48H0v2.679a7.54 7.54 0 0 0 1.015 3.778l.078.137c1.342 2.323 3.837 3.736 6.523 3.775h.116a7.494 7.494 0 0 0 6.425-3.585 7.87 7.87 0 0 0 .976-2.347c.123-.535.159-1.089.159-1.639v-6.163c0-1.91.923-5.17 4.853-5.17 2.607 0 4.313 1.93 4.313 5.17v13.438h4.81v-14.07c0-5.26-4.179-8.856-9.123-8.856ZM42.379 26.605 36.413 9.128H31.38l7.436 20.218a3.774 3.774 0 0 0 7.08.008l7.482-20.226H48.3l-5.921 17.477ZM66.023 8.627c-6.654 0-11.056 5.033-11.056 11.687C54.967 26.922 59.373 32 66.023 32c6.65 0 11.055-5.078 11.055-11.686 0-6.65-4.405-11.687-11.055-11.687Zm0 18.968c-3.595 0-6.337-3.101-6.337-7.281 0-4.226 2.742-7.281 6.337-7.281 3.64 0 6.336 3.055 6.336 7.28 0 4.18-2.696 7.282-6.336 7.282ZM2.411 4.814h.04A2.408 2.408 0 0 0 2.45 0h-.04a2.408 2.408 0 0 0 0 4.814ZM99.524 4.814h.039a2.408 2.408 0 0 0 0-4.814h-.039a2.408 2.408 0 0 0 0 4.814ZM173.061 26.82h-.039a2.408 2.408 0 0 0 0 4.813h.039a2.408 2.408 0 0 0 2.407-2.407 2.408 2.408 0 0 0-2.407-2.407ZM157.413 8.627c-2.861 0-5.367 1.114-7.101 2.883-1.688-1.815-4.141-2.883-6.83-2.883-5.399 0-9.572 3.94-9.572 8.853V31.55h4.719V18.115c0-1.91.923-5.17 4.853-5.17 2.608 0 4.314 1.93 4.314 5.17v13.438H152.606v-14.07c0-.027-.003-.052-.003-.08.215-1.91 1.335-4.458 4.81-4.458 2.608 0 4.314 1.93 4.314 5.17v13.438h4.81v-14.07c0-5.26-4.179-8.856-9.124-8.856ZM119.75 8.582c-6.456 0-10.583 4.965-10.604 11.77h-.004v3.193a3.504 3.504 0 0 1-3.499 3.503h-.004a3.495 3.495 0 0 1-2.682-1.25 3.498 3.498 0 0 1-.821-2.256V16.98h-.004V9.11h-4.779v14.538h.008a8.284 8.284 0 0 0 1.948 5.23 8.26 8.26 0 0 0 6.334 2.946h.007a8.272 8.272 0 0 0 6.336-2.957c.035-.042.067-.092.102-.137 1.9 2.047 4.631 3.22 7.933 3.22 3.866 0 7.281-1.754 8.853-4.493l-3.594-2.202c-.945 1.392-2.608 2.562-5.079 2.562-3.595 0-5.931-2.203-6.428-6.023h15.732c.853-7.415-2.608-13.212-9.755-13.212Zm-5.935 9.709c.585-3.415 2.696-5.618 5.977-5.618 3.687 0 5.438 2.876 5.438 5.618h-11.415Z"/></svg><svg fill="none" viewBox="0 0 120 120" id="play-btn" xmlns="http://www.w3.org/2000/svg"><circle cx="60" cy="60" r="60" fill="#000" fill-opacity=".7"/><circle cx="60" cy="60" r="59" stroke="#fff" stroke-opacity=".5" stroke-width="2"/><path d="M47 78.115V42.624c0-1.575 1.734-2.532 3.066-1.693l26.412 16.637a2 2 0 0 1 .096 3.32L50.162 79.743C48.838 80.688 47 79.74 47 78.115Z" fill="#fff"/></svg><svg viewBox="0 0 32 32" id="toward-arrow" xmlns="http://www.w3.org/2000/svg"><path d="m22.686 8-1.22 1.47s3.174 3.294 5.366 5.353c-7.686-.082-24.832 0-24.832 0v1.765s17.152-.064 24.835 0c-2.192 2.353-5.366 5.648-5.366 5.648L22.686 24 30 15.704 22.686 8Z"/></svg><svg viewBox="0 0 40 40" id="twitter" xmlns="http://www.w3.org/2000/svg"><path d="M31.483 11.687c1.347-.827 2.239-1.955 2.675-3.39a14.466 14.466 0 0 1-3.918 1.435c-1.171-1.26-2.655-1.9-4.433-1.9-1.738 0-3.207.61-4.405 1.796a5.934 5.934 0 0 0-1.794 4.342c0 .515.066.975.195 1.365-5.126-.175-9.37-2.302-12.713-6.395-.566 1.002-.85 2.021-.85 3.077 0 2.168.915 3.886 2.742 5.148-1.042-.088-1.96-.352-2.742-.784 0 1.549.455 2.842 1.367 3.98a6.038 6.038 0 0 0 3.525 2.152 6.572 6.572 0 0 1-1.632.197c-.52 0-.888-.044-1.106-.139a5.888 5.888 0 0 0 2.151 3.069 6.086 6.086 0 0 0 3.587 1.238c-2.22 1.742-4.758 2.604-7.63 2.604-.703 0-1.202-.01-1.503-.064 2.828 1.837 5.976 2.748 9.46 2.748 3.564 0 6.715-.903 9.456-2.71 2.742-1.796 4.765-4.013 6.065-6.623a17.949 17.949 0 0 0 1.953-8.153v-.78A12.981 12.981 0 0 0 35 10.698a13.57 13.57 0 0 1-3.517.989Z" opacity=".7"/></svg></svg>